<mxfile host="Electron" agent="Mozilla/5.0 (Windows NT 10.0; Win64; x64) AppleWebKit/537.36 (KHTML, like Gecko) draw.io/24.7.5 Chrome/126.0.6478.183 Electron/31.3.0 Safari/537.36" version="24.7.5">
  <diagram name="PÃ¡gina-1" id="9ELVqzXZRVmbSrdN4Jqo">
    <mxGraphModel dx="525" dy="359" grid="1" gridSize="10" guides="1" tooltips="1" connect="1" arrows="1" fold="1" page="1" pageScale="1" pageWidth="827" pageHeight="1169" math="0" shadow="0">
      <root>
        <mxCell id="0" />
        <mxCell id="1" parent="0" />
        <mxCell id="_S8gfPzFulQCuGWaaj8u-1" value="Persona" style="rounded=0;whiteSpace=wrap;html=1;" vertex="1" parent="1">
          <mxGeometry x="240" y="120" width="120" height="60" as="geometry" />
        </mxCell>
        <mxCell id="_S8gfPzFulQCuGWaaj8u-2" value="Libro" style="rounded=0;whiteSpace=wrap;html=1;" vertex="1" parent="1">
          <mxGeometry x="570" y="140" width="120" height="60" as="geometry" />
        </mxCell>
        <mxCell id="_S8gfPzFulQCuGWaaj8u-3" value="Prestamo" style="rounded=0;whiteSpace=wrap;html=1;" vertex="1" parent="1">
          <mxGeometry x="354" y="330" width="120" height="60" as="geometry" />
        </mxCell>
        <mxCell id="_S8gfPzFulQCuGWaaj8u-5" style="edgeStyle=orthogonalEdgeStyle;rounded=0;orthogonalLoop=1;jettySize=auto;html=1;exitX=0.5;exitY=0;exitDx=0;exitDy=0;flowAnimation=1;" edge="1" parent="1" source="_S8gfPzFulQCuGWaaj8u-4" target="_S8gfPzFulQCuGWaaj8u-1">
          <mxGeometry relative="1" as="geometry" />
        </mxCell>
        <mxCell id="_S8gfPzFulQCuGWaaj8u-4" value="Realiza" style="rhombus;whiteSpace=wrap;html=1;" vertex="1" parent="1">
          <mxGeometry x="280" y="220" width="80" height="80" as="geometry" />
        </mxCell>
        <mxCell id="_S8gfPzFulQCuGWaaj8u-6" style="edgeStyle=orthogonalEdgeStyle;rounded=0;orthogonalLoop=1;jettySize=auto;html=1;exitX=0.5;exitY=1;exitDx=0;exitDy=0;entryX=-0.002;entryY=0.592;entryDx=0;entryDy=0;entryPerimeter=0;flowAnimation=1;" edge="1" parent="1" source="_S8gfPzFulQCuGWaaj8u-4" target="_S8gfPzFulQCuGWaaj8u-3">
          <mxGeometry relative="1" as="geometry" />
        </mxCell>
        <mxCell id="_S8gfPzFulQCuGWaaj8u-9" style="edgeStyle=orthogonalEdgeStyle;rounded=0;orthogonalLoop=1;jettySize=auto;html=1;entryX=0;entryY=0.5;entryDx=0;entryDy=0;flowAnimation=1;" edge="1" parent="1" source="_S8gfPzFulQCuGWaaj8u-7" target="_S8gfPzFulQCuGWaaj8u-2">
          <mxGeometry relative="1" as="geometry" />
        </mxCell>
        <mxCell id="_S8gfPzFulQCuGWaaj8u-7" value="Usa" style="rhombus;whiteSpace=wrap;html=1;" vertex="1" parent="1">
          <mxGeometry x="530" y="250" width="80" height="80" as="geometry" />
        </mxCell>
        <mxCell id="_S8gfPzFulQCuGWaaj8u-8" style="edgeStyle=orthogonalEdgeStyle;rounded=0;orthogonalLoop=1;jettySize=auto;html=1;entryX=1.002;entryY=0.572;entryDx=0;entryDy=0;entryPerimeter=0;flowAnimation=1;" edge="1" parent="1" source="_S8gfPzFulQCuGWaaj8u-7" target="_S8gfPzFulQCuGWaaj8u-3">
          <mxGeometry relative="1" as="geometry" />
        </mxCell>
      </root>
    </mxGraphModel>
  </diagram>
</mxfile>
